<?xml version="1.0" encoding="utf-8"?>
<!-- Svg Vector Icons : http://www.onlinewebfonts.com/icon -->
<!DOCTYPE svg PUBLIC "-//W3C//DTD SVG 1.1//EN" "http://www.w3.org/Graphics/SVG/1.1/DTD/svg11.dtd">
<svg version="1.1" xmlns="http://www.w3.org/2000/svg" xmlns:xlink="http://www.w3.org/1999/xlink" x="0px" y="0px" viewBox="0 0 1000 1000" enable-background="new 0 0 1000 1000" xml:space="preserve">
<metadata> Svg Vector Icons : http://www.onlinewebfonts.com/icon </metadata>
<g><path fill="#EEE7E1" d="M961.4,370.5c0-107.2-86.9-194.1-194-194.1c-28.6,0-55.7,6.4-80.1,17.5C681.9,91.5,597.5,10,493.7,10c-102,0-185.5,78.8-193.3,178.8c-21.1-7.9-43.9-12.4-67.8-12.4c-107.2,0-194,86.9-194,194.1c0,53.8,21.9,102.5,57.3,137.6c-35.4,35.1-57.3,83.8-57.3,137.6c0,107.1,86.9,194,194,194c24.6,0,48.1-4.7,69.7-13.1C317.1,919.2,397,990,493.7,990c97.3,0,177.7-71.8,191.7-165.2c23,9.6,48.3,15,74.8,15c107.2,0,194-86.9,194-194c0-52.1-20.6-99.3-54-134.1C937.8,476.2,961.4,426.2,961.4,370.5z M500,682.4c-100.7,0-182.4-81.6-182.4-182.4c0-100.7,81.7-182.4,182.4-182.4S682.4,399.3,682.4,500C682.4,600.7,600.7,682.4,500,682.4z"/></g>
</svg>